<svg xmlns="http://www.w3.org/2000/svg" width="240" height="180" viewBox="0 0 240 180" fill="none" stroke-linecap="round" stroke-linejoin="round"><path d="M30 50 L40.3 40.8 L53.7 33.9 L69.4 29.1 L86.3 26.1 L103.5 24.5 L120 24 L137.2 24.5 L156.1 26.1 L175.4 29.1 L193.4 33.9 L208.8 40.8 L220 50 L227.5 63.3 L232.4 80.7 L234.8 100.2 L234.2 119.7 L230.7 137 L224 150 L212.9 158.7 L197.2 164.7 L178.5 168.6 L158.4 170.8 L138.4 171.8 L120 172 L101.8 171.8 L82.3 170.8 L62.9 168.6 L45 164.7 L30.3 158.7 L20 150 L14.4 137 L12.2 119.7 L13.1 100.2 L16.7 80.7 L22.4 63.3 Z" fill="#d9dfd0" fill-opacity="0.4"/><path d="M54.7 107.1 L69.6 107.2 L84.2 106.7 L100 106.8 L115.5 107.4 L131.6 105.4 L144.9 107 L160.2 105.9 L176.2 107.6 L190.2 105.9 L185.6 124.6 L180.5 142.2 L175.6 158.7 L160.9 159.3 L146.3 159.5 L130.6 159.7 L115.8 157.9 L100.7 159.4 L86.9 158.1 L71.9 158.4 L64.7 141.8 L59.7 124.4 Z" fill="#dcc398" fill-opacity="0.85"/><path d="M189.8 106.2 L189 109.4 L185.9 110.1 L181.7 111.9 L175.8 115.1 L167.4 115.7 L158 116.3 L146.3 117.6 L134.6 118.7 L122.1 118 L112.3 118.7 L98.8 116.7 L89.5 116 L80.4 116.7 L70.9 114.3 L63.2 111.4 L59.2 111.5 L55.7 107.8 L54.1 105.7 L56.2 105 L58.1 103 L63.9 101.3 L70.5 99 L78.4 97.5 L88.9 96.2 L99 95.4 L111.7 93.5 L122.2 94.1 L133.7 95.6 L146.2 94.1 L156.2 96.9 L166.7 98.4 L174.9 98.9 L182.5 100.4 L186 102.5 L190.8 105 Z" fill="#c49a6c" fill-opacity="0.5"/><path d="M138.2 72.1 L135.3 71.8 L132.8 72.9 L133.3 74.6 L130.4 74.6 L129.8 76.8 L132 79 L132.2 79.1 L134.6 80.7 L137.7 84 L138.6 84.3 L143 84.5 L144.3 85.2 L145.3 85.6 L147.6 87.3 L149.8 84.9 L151.1 84.4 L152.1 84.1 L153.3 82.1 L150.6 80.2 L150.5 79.1 L145.3 76.2 L142 74.7 L139.4 72.8 Z" fill="#8fbf5c" fill-opacity="0.85"/><path d="M166.5 61.2 L167.5 61.6 L169.2 60.5 L171.4 62 L173.5 63.8 L173.7 64.9 L174.8 67.6 L174.1 69.2 L171.2 71.3 L168 72.8 L167.1 75.8 L162.8 77.3 L160.6 78.6 L159.8 79.7 L156.9 78.4 L154.7 78.2 L153.6 79.1 L152.8 78 L152.6 76.9 L153.4 74.8 L155.7 70.3 L159.4 67 L161.7 63.8 L163.3 62.5 Z" fill="#b7d38c" fill-opacity="0.85"/><path d="M52.2 104.1 L71.5 104.9 L91.4 104.2 L109.4 102.9 L129.7 104.8 L149.5 104 L167.8 103.5 L187.3 103.8 L181.9 121.3 L177.3 138.4 L172.3 157 L150.2 155.8 L130.4 156.9 L109.7 156.8 L88.4 156.9 L67 156.4 L63 139.5 L57.4 122 Z" stroke="#1f3b2d" stroke-width="1.2" stroke-opacity=".35"/><path d="M188.9 104.3 L185.9 105.8 L183.8 107.5 L177.8 110.5 L172.6 112.4 L163.3 114.3 L153.5 115 L142.7 116.3 L131.2 115.9 L119.1 116.9 L107.9 116.5 L97.4 116 L86.4 115.3 L77.3 112.3 L66.9 111.1 L60.1 109.8 L55.1 107.8 L53.4 105.3 L52.2 103 L53.6 102.7 L55.7 99.6 L60.9 98.8 L67.7 96.4 L75.6 95.1 L86.5 92.7 L97.1 92.9 L107.8 92.7 L120.3 90.9 L131.1 91.3 L144.2 93 L154.6 94.4 L163.9 94.9 L171.6 97.2 L178.5 97.7 L183 100.5 L186.8 102.5 Z" stroke="#1f3b2d" stroke-width="1.1" stroke-opacity=".35"/><path d="M60 92.8 L60.2 93.2 L60.9 92.2 L59.9 92.3 L61.4 93.3 L61.7 92.4 L60.9 92.6 L60.4 92.2 L61.3 92.9 L62 92.7 L60.4 90.5 L60.7 90.8 L60.9 91.5 L62.3 92 L61.3 89.7 L61.4 91.5 L61.8 91.4 L62 89.8 L61.5 90.4 L62.5 90.7 L62.6 89.2 L61.4 88.6 L62.5 89.1 L62.9 89.4 L61 88.9 L62.9 88.4 L61.3 88.9 L62.8 87.1 L61.1 87.2 L62.8 87.1 L61.4 88.3 L61.8 86.9 L63.2 86 L61.7 86.2 L62.5 87.5 L62 87.1 L63.7 85.4 L61.7 85.8 L62.8 84.8 L62.6 85.5 L63 85.3 L63.4 85.8 L63.8 84.4 L63.8 85.8 L63.9 85.6 L63.7 84.5 L64.4 84 L62.3 83 L62.4 83.4 L63.5 83.8 L62.7 84.6 L64.6 83.1 L62.7 83.4 L64.1 82.1 L64.7 83.6 L62.9 81.9 L64.4 82.9 L64.3 81.9 L65 81.3 L64.8 81.3 L63.5 82.6 L63.9 80.3 L63.9 81.7 L65.5 80.7 L64.9 80.3 L64.1 79.6 L64.3 79.7 L64 80.8 L65.2 79.8 L64.6 79.9 L66.3 79.8 L64.6 80.4 L65.7 79.9 L66.4 80 L65.5 78.4 L65.8 78.1 L66.5 79.2 L65.1 78.3 L65.2 78.9 L65.7 78.2 L65.9 76.7 L67.3 76.6 L67.2 77 L66.7 77.8 L65.7 76.9 L66.2 76.6 L65.8 77 L67.5 77.4 L66.2 77.3 L67.1 75.4 L66.2 75.5 L67.7 74.6 L66.9 76.4 L68 75.8 L67.1 75.1 L67 75.2 L67.4 75.4 L68.7 75.6 L68.5 75 L69.1 73.2 L69.1 75 L68.6 73 L67.4 73.7 L67.7 72.4 L68.3 73 L68.3 72.2 L68.6 71.9 L68.4 73.3 L69.1 72 L70.1 73.4 L69.3 73.2 L69.5 72.1 L69.6 71.5 L68.4 71.5 L70.3 71.6 L69.4 71 L69.5 71.1 L69.4 71.1 L69 71 L69.1 70.5 L71 69.5 L71.3 71 L69.8 70 L71.1 69.9 L70.1 69.4 L71.5 69.1 L71.7 70.3 L71.7 69.4 L71.8 68 L70.5 69.1 L71.3 68 L72.2 68.8 L72.6 67.5 L71 68.6 L72.8 68.5 L73 67.6 L72.7 67.6 L71.4 67.3 L73.6 68 L71.7 68 L73.6 66.7 L71.8 66.1 L73.8 67.5 L73.8 66.9 L73.8 66.5 L74.2 66.8 L73.6 66.7 L73.8 66.4 L72.7 65.6 L73.4 66 L73.7 65 L74.8 65.4 L73.4 65.8 L74.6 64.7 L75.6 65.5 L74.9 65.6 L75.3 64.7 L74.5 64.7 L75.6 65.2 L74.9 63.2 L76.2 64.8 L76.5 64.3 L76.1 62.9 L76.4 63.8 L76.9 64 L76.7 62.6 L75.6 64 L75.7 62.6 L76.5 63.3 L76.5 62.8 L75.8 62.7 L78 62.2 L76.3 61.7 L77.5 62.6 L77.1 61.5 L77.1 61.3 L78.8 61.5 L77.9 60.5 L77 60.3 L78 60 L78.9 59.8 L79.2 60.4 L78.4 61 L79.6 59.9 L78.9 61.2 L78 60.7 L78.9 59.3 L78.8 59.8 L79.1 60.1 L80 59.5 L80.3 59.5 L80.7 58.7 L80.4 60.1 L79.3 60 L80.2 58.1 L80.9 59 L80.7 57.8 L80.1 57.7 L81.8 59.1 L81 57.6 L81.7 57 L80.9 58.7 L82.5 56.8 L81.9 56.8 L83 57.7 L81.7 56.9 L81.9 58 L82.6 56.8 L83.4 56.9 L81.9 57.2 L82.2 57 L84 55.8 L82.7 55.4 L83.7 56.5 L84.2 56.8 L82.8 56.1 L83.6 55.9 L83.4 55.9 L84.3 56.7 L84.6 54.8 L84 55.2 L85.1 55.5 L86.1 55.2 L86.1 56 L85.8 55 L86.3 54.7 L86.8 53.8 L85.6 54.9 L86.6 55.3 L87.3 53.9 L86.1 53.5 L86.3 54 L86.9 53.1 L87.3 54.6 L87 54.4 L88.3 54.1 L87 53 L87.7 52.7 L88.7 53.8 L87.3 53.5 L89 52.3 L89.3 53.2 L87.5 51.9 L88.7 52.4 L89.4 52.9 L88.5 52.5 L88.3 52 L89.1 51.6 L89.9 53.1 L90.9 52.4 L90.2 52.7 L91.1 51.8 L91.1 52.2 L91.1 52.3 L90.5 50.8 L89.9 52.2 L92 52 L92.3 51.1 L90.9 51.6 L91.5 50.2 L92.6 51.1 L90.9 52 L91.1 51.8 L91.9 51.4 L91.7 51.4 L92.8 50.6 L93.5 50.6 L93.3 50.7 L92.4 49.6 L93.9 50.4 L94.4 51.1 L93.8 50.6 L93.7 48.9 L94.3 49.7 L94.5 48.9 L93.5 48.9 L94.4 50.6 L95.1 50.1 L95.9 49.5 L95.9 49.9 L96.5 49.5 L95 49.5 L96.8 48.6 L97.2 49.2 L96.8 49 L95.5 49.1 L96.5 48.7 L96.9 47.7 L98.2 49 L98 48.8 L96.8 47.7 L97.8 49.3 L98.7 48.8 L98.2 47.6 L99.3 47.3 L97.8 48.8 L98.1 47.9 L99.3 48.7 L99.1 47.9 L100 47 L100.1 47.1 L100.4 47.6 L98.9 47.1 L100 46.8 L99.6 47.7 L100.4 47.4 L100.8 46.2 L100.6 46.4 L101.5 47.8 L101 46.1 L101.7 46.1 L102.3 45.8 L102 47.3 L102.6 46.6 L103.2 46.9 L101.9 46.4 L101.9 47.6 L103.6 46.2 L103.8 46.8 L103 45.3 L103.3 45.7 L103.2 47.2 L103.2 45.8 L103.7 46.4 L103.4 46.5 L104.1 46.6 L104.5 47.1 L106 44.9 L105 46.3 L104.4 44.8 L106.6 45.6 L106.4 46.7 L105 46.4 L106.5 46.1 L107.3 45.9 L105.7 46.4 L105.9 45.2 L107.7 45.8 L107.3 46.3 L106.4 46.4 L107.2 45.8 L107.3 44.3 L108.6 44.9 L108.5 45.7 L108 45.6 L107.6 44.5 L108.5 44.1 L108.2 45.4 L109.7 43.9 L108.6 44.1 L109.6 43.9 L109.9 43.9 L110.2 44.1 L110.8 43.8 L111.5 43.8 L110.9 44.4 L111.5 43.8 L110 44 L111.7 44.3 L111.7 44.6 L111.4 44.4 L112.5 45.4 L111.8 45.6 L111.3 45.2 L112.8 44.8 L112.5 45.5 L113.5 45.4 L113.4 44 L112.5 44.1 L113.9 44.8 L113 44.4 L112.8 43.9 L113.2 44.2 L114 44.8 L114.9 44.5 L115.2 44.5 L114.9 43.7 L115.3 44.4 L115.7 44 L115.8 44.1 L115.7 44.6 L116.7 43.9 L117.2 43.9 L115.4 44.1 L115.6 43.2 L116.3 43.3 L117.2 44.3 L117.5 44.5 L117.4 43.7 L117.1 43.3 L117 43.6 L117.6 44.2 L118.5 43.1 L118.3 43.2 L119.6 44.6 L118.1 43.7 L118.8 43.9 L119.6 44.4 L120.4 44 L119.8 43.1 L119.1 43.6 L121.2 43.3 L119.9 43.4 L121.2 43.5 L120.8 43.4 L120.5 44.6 L121.2 43 L120.4 44.9 L121.2 44.7 L121.5 43.8 L122.1 44.9 L123.3 44.2 L122.2 43.9 L122.9 43.1 L122.3 43.5 L123.8 43.9 L122.8 43.4 L124.2 45.1 L122.8 44.9 L123.4 45 L123.2 45.1 L125.2 44.6 L124.9 43.8 L124.9 44.3 L124.8 43.6 L126.2 43.6 L125.6 44.8 L126.5 45.2 L125.9 44 L125.6 43.5 L126.3 45.2 L127 44.5 L126.3 44.9 L126.7 44.3 L126.5 44 L128.4 44.8 L126.9 45.4 L128 45.5 L128.5 43.7 L127.8 45.4 L129.3 45.6 L129.2 45.6 L127.8 45.6 L128.7 44.2 L129.1 44.2 L129.2 44.1 L129 44.4 L129.4 44.5 L129.4 45.8 L130.3 44.1 L131 44.8 L130.7 45.9 L131.4 44.7 L131.4 45.7 L130.2 45.7 L131.3 44.7 L132.2 44.4 L132.3 46.1 L131.4 45.7 L132.9 46.4 L133.2 45.2 L133 45.5 L131.9 44.8 L133.6 44.4 L134.3 45.4 L133.5 45 L134.5 45.1 L133.3 44.8 L134.7 45 L134 45.4 L134.3 46.6 L134.2 45.4 L136 45 L135.2 46.3 L136.3 45.9 L136.4 46.7 L135.6 46.4 L135.2 45.6 L136.7 45.9 L137.2 46.7 L137 45.6 L135.8 46.3 L137.4 46.4 L136.3 47.4 L137 45.5 L137.8 46.1 L138 46.7 L138.7 47.6 L138.9 47.3 L139 46.6 L138 47.6 L138.2 47.7 L138.9 46.9 L139.5 47.4 L139.8 46.3 L139.1 48.3 L139.6 48.2 L139.7 47.2 L139.8 46.7 L141.1 47.4 L140.9 46.9 L140.1 47.4 L140.2 47.1 L140 47.4 L141 48.5 L140.8 49.1 L142.7 48.4 L142.7 48.1 L141.4 47.5 L142.8 48.3 L142.5 47.6 L143.7 49 L142.2 48.5 L144.1 47.9 L142.7 49 L143.7 48.5 L142.8 48.8 L142.8 48.6 L143.7 47.9 L143.6 49.6 L144.9 48.8 L144 48.8 L145.7 48.3 L144 49.9 L145.7 48.5 L146 50.2 L145.3 49.7 L146.6 48.8 L144.8 48.8 L146.1 50 L146.7 49.3 L146.8 50.4 L147 50.3 L147.5 50.8 L146 50 L146.8 50.4 L147.9 50.1 L148.6 50 L148.4 50.2 L148.9 51.4 L148 51.8 L148.3 52 L149.5 52.3 L149.4 50.5 L148 52.2 L149.9 51.6 L148.4 51.5 L148.4 51.8 L148.9 51.4 L150.5 52.1 L149.2 52.6 L150.8 51.7 L150.7 51.3 L151.3 52.1 L151.3 52.2 L150.9 52.1 L151.7 53.6 L150.9 53.1 L151.5 53.5 L151 53 L151.5 53 L151.1 53.7 L151.9 52.3 L151.8 53.3 L151.4 52.5 L152 53.5 L151.8 53.2 L153 53.1 L153.9 54.8 L153.9 54.1 L153.5 55 L153.4 55 L154.4 54.8 L153.9 55.3 L154.9 53.9 L154.2 54.9 L155.6 54.3 L155.8 56 L154.2 56.1 L155.4 56.1 L156.3 56.2 L155.7 55.8 L155.5 54.7 L155 56.2 L156.7 55.1 L156 55.6 L157.3 56.2 L156.4 56.9 L156.1 55.9 L156.7 55.6 L157.9 55.7 L157.3 55.8 L157.1 58.1 L157.1 57.1 L158.2 58.4 L156.7 56.5 L159 56.4 L158.2 58.5 L157.4 58.3 L157.7 58 L157.9 58.3 L158.3 58.1 L159.2 57.4 L159 59 L159.2 58.1 L158.4 58.5 L160.3 58.6 L159.1 59.2 L159.3 58.2 L160 58.7 L159.8 59.4 L159.4 59.4 L159.6 58.7 L159.7 59.3 L161 59.6 L161.7 59.6 L161.6 59.4 L160.6 60.6 L161.1 61.6 L162 59.7 L161.8 61.2 L161.2 60.3 L162.4 61.9 L163 61.9 L163.3 61.6 L162.9 62.4 L163.7 62.8 L162.3 61.5 L162 61.4 L162.4 62.8 L162.3 61.9 L164.2 62 L163.8 63.5 L162.8 62.9 L164.7 61.9 L164 63.3 L164.4 63.4 L164.6 63 L163.5 63 L163.5 63 L164.1 62.9 L165.1 64.6 L165 63.4 L165.3 64.4 L164.9 64.5 L166.2 64.7 L165.9 65.1 L165 65.5 L165.1 65.5 L164.9 66.1 L165.4 65.3 L165.9 66.7 L166 66 L165.9 65.4 L166.3 65.6 L166.9 65.2 L165.8 67 L166.1 65.5 L167.2 67.1 L167.3 66.1 L166.7 66.8 L166.5 66.9 L167.8 67 L167.7 68.7 L167 68 L166.9 68.4 L167.4 67.7 L168 67.8 L168.7 69.1 L167.3 68.4 L168.4 69.5 L169.1 67.9 L169.4 68.2 L168 68.4 L168.5 68.9 L169.4 70 L168.6 69.6 L169 70.8 L169.8 70.9 L168.6 69.3 L169.1 70 L170.7 71.6 L170.8 70.3 L170.8 70.5 L171 72.2 L170.3 70.4 L170.4 71.5 L171 72.5 L171.2 72.4 L171.3 73.1 L170.1 72.8 L171.5 73.2 L171.7 72 L170.8 72.8 L172.2 72.1 L170.9 73.4 L171.4 72.7 L171.3 74.2 L172.2 73.3 L171.9 73.2 L172.8 73.6 L173.1 75.1 L172.8 74.8 L172.7 75.1 L171.3 74.2 L172.7 76 L172.8 74.2 L172 75.7 L172.2 74.7 L171.9 75 L171.9 74.8 L172.9 76.9 L173.4 75.9 L174.2 76.2 L172.9 76.3 L174.2 76.3 L172.6 76.5 L172.7 76.3 L174.5 78.2 L173.7 78.2 L173.5 78.3 L174 78.9 L174.5 78.3 L174.9 78.6 L175.2 78 L173.4 78.3 L174.6 79.1 L174.3 79.9 L175.5 80.3 L175.5 78.5 L174 79 L174.3 79.9 L174.5 78.9 L175.2 80.8 L174.8 79.4 L175.6 79.9 L174.9 80.1 L174.7 80.1 L175.4 82.2 L175.4 80.7 L174.8 81.5 L174.6 81.6 L175.8 81.8 L176.9 83.2 L175.5 82.6 L175.3 82.5 L176 82.1 L175.8 83.6 L175.5 82.6 L176.3 84.3 L175.6 83.8 L175.8 84.2 L177.2 83.5 L176.5 83.9 L177 84.1 L177.7 84.3 L177.8 85.2 L177.5 84.7 L177.8 85.9 L176.3 86.1 L177 85 L176.2 85.1 L176.9 86.1 L176.4 86.7 L177 86.5 L178 86.2 L178 86.4 L178.4 87.7 L176.9 86.2 L177 87.3 L178 87.4 L178.8 86.9 L177.6 87.9 L178.4 88.5 L177 88.1 L177.7 88 L177.1 88.3 L177.3 88.1 L178 89.8 L177.4 89.3 L178.3 90.3 L178 88.8 L179.4 89.7 L178.8 89.2 L179.1 89.2 L179.3 89.6 L179.6 89.8 L179.1 89.9 L179.1 92 L179.5 91.9 L178.6 90.4 L178.5 91 L177.8 92.8 L179.3 93.2 L177.9 92.2 L180 92.4 L178.7 92.5 L177.9 93.1 L177.9 92.8 L179.9 94.1 L179.3 92.7" stroke="#1f3b2d" stroke-width="1.2" stroke-opacity=".35"/><path d="M150.3 98.6 L150.4 73.9" stroke="#4f7a3a" stroke-width="0.9" stroke-opacity=".35"/><path d="M133.7 69.3 L132.3 69.7 L130.1 71 L129.6 71.1 L128.6 73.3 L128.9 73.6 L128.9 75.5 L129 78.4 L130.2 79.4 L133.4 81.2 L135.9 82.2 L140.1 83.7 L141.9 83.3 L142.1 84.8 L145.2 83.6 L147.9 82.8 L149.4 81.7 L150.1 80.6 L150.7 80.7 L149 79.3 L145.8 77 L143 74.4 L139.3 72.2 L136 70.4 Z" stroke="#4f7a3a" stroke-width="0.8" stroke-opacity=".35"/><path d="M164 59.1 L164 57.4 L166.2 58.3 L168.8 60.8 L169.6 62.7 L169.9 63.8 L171.1 65.6 L170.7 67.8 L167.4 68.3 L165.2 71.6 L162.6 72.3 L160.6 74.2 L158.7 76 L156.4 77.3 L155 76.1 L152.7 77.4 L151.3 75 L150.5 75.2 L149.9 73.8 L152 71.5 L154 68.7 L155.3 65.5 L158 61.9 L160.2 59.9 Z" stroke="#4f7a3a" stroke-width="0.8" stroke-opacity=".35"/><path d="M23.9 159.5 L26.9 160.2 L29.8 160.5 L34 161.3 L39.8 161.2 L44 162.2 L48.1 161.8 L52.1 161.9 L56 162.5 L60.6 161.6 L64 161.6 L67.5 161.9 L72 161.3 L76 160.5 L80.7 160.3 L83.8 159.2 L87.7 159.1 L91.3 158.9 L95.4 159 L100.3 158.8 L103.9 158.8 L107.9 158 L112.6 158.5 L116.7 157.6 L120 158.3 L123.4 158.3 L128.5 158.1 L132.7 159.1 L136.6 159.1 L140.3 159.4 L144.4 160.1 L148.2 160.7 L152.6 160.5 L155.8 161.8 L159.7 161.8 L163.8 162.5 L168.6 162.4 L172.5 162.4 L175.9 161.4 L179.4 160.9 L183.8 161.4 L187.6 161 L191.7 161.2 L195.9 159.9 L201.2 159.5 L205.1 158.8 L209.4 159 L213 158.1 L215.6 157.9" stroke="#1f3b2d" stroke-width="1.8"/><path d="M55.9 161.7 L53.1 151" stroke="#5f8a3e" stroke-width="1.3"/><path d="M58.8 160.5 L59.2 150.3" stroke="#5f8a3e" stroke-width="1.3"/><path d="M60.2 161 L63.9 150.6" stroke="#5f8a3e" stroke-width="1.3"/><path d="M117.1 161.2 L114.1 151.1" stroke="#5f8a3e" stroke-width="1.3"/><path d="M118.6 161.3 L120.1 152.1" stroke="#5f8a3e" stroke-width="1.3"/><path d="M121.3 161.5 L125.1 150" stroke="#5f8a3e" stroke-width="1.3"/><path d="M176.5 160.7 L173.6 151.3" stroke="#5f8a3e" stroke-width="1.3"/><path d="M178.7 161.7 L179.9 152.6" stroke="#5f8a3e" stroke-width="1.3"/><path d="M181.5 161.6 L185.5 150.1" stroke="#5f8a3e" stroke-width="1.3"/><path d="M51.4 104 L64.3 104.2 L76.4 104 L88.8 104.2 L102 104.5 L114.1 104.7 L126.8 104.7 L138.5 104.2 L151.2 104.5 L163 103.7 L175.4 103.7 L188 103.5 L184.4 116.7 L180.5 129.7 L175.6 143.6 L171.6 156.2 L159.6 156.1 L146.5 155.4 L133.2 156.7 L119.9 155.8 L106.8 156 L93.4 155.7 L80.9 156.2 L68.7 155.5 L64.5 143.5 L59.4 130.4 L55.5 116.6 Z" stroke="#1f3b2d" stroke-width="2.6"/><path d="M188.1 103.4 L186.6 105.9 L184 108.2 L178.7 109.6 L172.7 111.4 L163.2 113.5 L154.4 115 L143 114.6 L131.4 116.4 L119.7 116.2 L107.6 116 L96.1 114.8 L85.7 114.6 L76.5 112.6 L67.7 111.9 L60.7 109.6 L56 107.9 L52.8 106.2 L51.5 104 L52.7 102.5 L56.1 99.7 L60.5 97.4 L68.6 97 L76.9 94.7 L86.7 93.9 L96.9 93.1 L108.4 91.7 L120.5 91.7 L131.6 91.6 L142.8 92.3 L153.7 94.2 L163.8 95.3 L171.9 96.2 L179.4 97.3 L183.3 100.4 L187.1 101.7 Z" stroke="#1f3b2d" stroke-width="2.4"/><path d="M66 114.1 L69.2 127 L73.2 140.1 L76.2 154.2" stroke="#8a6a3a" stroke-width="1.2"/><path d="M91.4 114.6 L94.4 128 L96.2 140.6 L97.3 153.4" stroke="#8a6a3a" stroke-width="1.2"/><path d="M118.1 114.3 L119.2 127.4 L119.7 140.4 L120.5 153.7" stroke="#8a6a3a" stroke-width="1.2"/><path d="M144.7 114.1 L143.9 127.8 L143.3 140.3 L142.6 153.8" stroke="#8a6a3a" stroke-width="1.2"/><path d="M170.6 114 L167.8 128 L165.8 141.1 L164.4 154.4" stroke="#8a6a3a" stroke-width="1.2"/><path d="M58.2 121.7 L70.1 121.6 L82.8 122.6 L94.8 121.8 L108.2 122.3 L119.5 121.3 L131.7 122.6 L144.4 121.9 L157.3 121.7 L169.1 121.5 L181.8 121.8" stroke="#8a6a3a" stroke-width="1.2"/><path d="M62.6 133.4 L75.4 133.9 L88.2 134.2 L100.3 133.7 L113.6 134 L126 133.8 L138.7 133.7 L152.1 134.1 L165.3 133.4 L178.3 134.5" stroke="#8a6a3a" stroke-width="1.2"/><path d="M65.9 145.4 L77.5 145.9 L89.4 146.1 L102.4 145.4 L114.4 146.1 L125.8 146 L137.4 146.5 L150.5 146.6 L162.7 146.3 L174.2 145.7" stroke="#8a6a3a" stroke-width="1.2"/><path d="M61.5 93.2 L60.4 93.6 L60.9 93.8 L60.5 93.6 L61.6 93.2 L60.8 92.9 L61.5 92.8 L61.5 91.6 L61.2 92.5 L61 91.5 L61.2 91.2 L61.6 91.8 L61.9 91.3 L60.8 91.4 L62 91.4 L62 91 L62.2 89.9 L61 89.7 L61.5 89.3 L62.1 89.5 L61.9 89.2 L61.9 90 L62 88.7 L61.8 88.5 L62.3 88.5 L62.7 88.4 L62.1 88.4 L62.4 87.7 L61.9 87.9 L61.8 88 L62.1 87 L63 87.2 L62 87.7 L62.6 87 L63.1 86.3 L62.6 86.7 L62.1 86 L63.4 86.1 L63.2 85.8 L62.9 85.4 L62.4 84.9 L62.8 84.6 L63.5 85.7 L63.1 85.6 L63.1 85.4 L62.8 83.9 L63.4 83.8 L63.9 83.9 L63.3 83.9 L64 84 L63.9 83.3 L63.7 83.6 L64.1 83.2 L63.3 82.6 L63.3 82.6 L64 83.1 L63.5 82 L63.6 82.7 L64.4 81.4 L64.4 81.6 L64.5 81.2 L64.8 80.9 L65.2 81.1 L65.2 81.6 L64.5 80.7 L64.1 79.9 L64.8 80.3 L65.3 80.5 L64.5 79.7 L65.5 79.9 L65.2 79.2 L64.7 79.9 L65 78.8 L65.4 79.2 L65.7 78.3 L65.2 78.4 L65.3 78.6 L65.7 77.6 L65.9 78.7 L65.8 77.9 L66.5 77.3 L65.5 77.8 L66.3 77.5 L67 77.6 L66.8 77.1 L66.9 76.8 L66.9 76 L66.9 76.3 L67.1 75.9 L66.6 75.5 L67 76.2 L66.7 75.7 L67.2 75.8 L67.5 75.7 L66.8 75.8 L68 75.6 L68.2 75.4 L67.8 75.2 L67.2 74.9 L67.5 74.8 L67.7 73.6 L68.6 74.3 L68.4 74.1 L68.7 73.1 L69 73.9 L68.7 72.9 L69.1 72.9 L69.4 72.6 L69.1 72.3 L68.5 72 L68.8 71.8 L68.6 72.1 L69 71.7 L69.1 72 L69.3 71.7 L70.3 71.9 L69.7 70.5 L69.2 70.8 L70.3 70.8 L70.6 70.2 L70.3 71.1 L69.8 70.3 L69.9 69.6 L70.1 69.7 L70.4 69.7 L71.4 68.9 L70.9 69.4 L71.3 68.8 L71.9 68.5 L72 68.3 L70.9 68.5 L71.5 68.6 L71.1 68.8 L71.6 68.7 L72.6 68.2 L72.1 67.3 L72.7 67.8 L72.7 68.1 L72.4 67.9 L72.2 67.5 L72.2 67.1 L72.5 66.8 L72.5 67.3 L73.5 66 L73.7 66.9 L73.4 66.8 L74 66.4 L74.1 66.6 L73.1 65.2 L73.9 65.9 L74.5 65.5 L74.6 64.6 L74.6 65.5 L74.1 64.3 L74 65.4 L75 65.3 L74.5 64 L74.5 64.1 L74.5 64.8 L76 64.5 L75 63.9 L75 63 L76.1 63.7 L76 63.2 L76.5 62.7 L76.8 62.5 L76.2 62.2 L76.4 62.9 L75.9 63 L76.2 62.1 L76.3 62.7 L76.5 62.7 L76.8 62.4 L77.8 62.4 L76.8 62.2 L77.5 61.9 L77.8 61.4 L78.2 61.3 L77.5 61.2 L78.2 61.7 L78.4 61.3 L78.7 61 L78.9 60.4 L79.4 60.5 L78.4 60 L79.2 60.7 L78.9 60.7 L79.3 60.3 L78.9 59.3 L79.7 59.8 L80.5 59.7 L80.4 59.5 L80.3 58.6 L80 59.5 L80.4 58.5 L80.9 58.5 L80.9 59 L80.7 58.3 L80.6 58.3 L81.7 57.8 L81.2 57.8 L81.4 58.4 L81.9 57.9 L81.9 58.3 L82.2 57 L82.3 57.9 L82.5 57.7 L82.2 56.8 L82.7 57.2 L83.5 56.4 L83 56.3 L83.9 56.7 L83.3 56.4 L83.5 56.4 L83.5 56.9 L83.3 55.9 L83.7 56 L84.3 56.4 L83.9 55.8 L85.2 55.7 L84.3 55.7 L85.1 55.7 L85.7 55.1 L84.9 54.6 L86 54.5 L85.5 55.2 L85.8 54.6 L86.3 54.1 L85.8 54.9 L86.8 54.8 L86.5 54.5 L86.7 54.3 L86.2 54.4 L87.2 54.2 L87.7 53.5 L87 53.6 L87.2 53.1 L88.2 53 L88 52.8 L88.6 52.6 L88.7 53.5 L87.7 53 L88.6 52.9 L88.3 52.7 L89.3 52.4 L89.5 52.8 L88.8 52 L89.4 53 L90.1 51.8 L90 51.7 L89.3 52.3 L90.7 51.4 L90.5 51.2 L90.5 51.3 L90.8 51.4 L91.3 50.9 L91.5 52 L91.6 51.9 L91.8 51.2 L91.1 51 L92.1 51.1 L92.1 50.7 L91.9 51.4 L91.8 51.3 L93.1 50.9 L92.8 50.8 L92.7 50.1 L93.1 51 L93.7 50.4 L93.3 50.7 L93 50.7 L94 50.6 L94.4 50.2 L94.7 50.2 L93.8 50.1 L95 50.1 L94.9 50 L94.7 49.1 L95 49.3 L95.8 48.7 L95.2 49.1 L95.6 48.4 L96.7 49.5 L96.8 48.9 L95.7 48.9 L96 48.6 L96.6 49.2 L96.9 48.9 L96.5 48.7 L97.1 47.9 L97 48 L98 47.7 L97.4 47.7 L97.8 48 L97.9 48 L99.1 47.3 L98.2 48.1 L99.5 47.2 L99.1 47.1 L99.8 48 L99.4 48.2 L100 47.8 L100.5 48.2 L100.7 47.7 L100 47.7 L100.9 47.8 L100.1 46.7 L100.7 46.5 L101 47 L101.6 46.9 L102.1 47.6 L102.2 46.4 L101.3 46.6 L102.1 46.6 L101.9 46.9 L102.9 46.6 L103.3 46 L102.4 46.7 L102.6 46 L103.9 46.7 L103.2 45.8 L103.2 46.9 L104.2 46.1 L104.3 46.5 L104.4 45.8 L104.5 45.4 L105.1 46.7 L104.7 46.5 L105.6 45.3 L105.4 45.7 L105 45.9 L105.2 46.3 L105.8 45.8 L106.3 45.2 L106.8 45 L106.8 45.2 L106.4 45.7 L107.4 45.8 L106.7 46 L107.2 45.2 L107 45.9 L107.4 45.9 L107.4 45.8 L107.9 45.7 L108.9 44.7 L108.2 44.5 L108.9 44.5 L109.4 45 L108.6 44.5 L109.9 44.5 L109.2 45.5 L109.6 44.3 L110.5 44.2 L110.8 44.3 L110.4 44.2 L110.5 44.9 L110.3 44.6 L110.9 45 L110.9 44.5 L111.4 44.6 L112.1 44 L112.2 45.2 L111.5 44.9 L112.5 44.7 L112 44.1 L112.9 45.1 L112.5 43.8 L113.6 44.3 L113.6 44.5 L113.8 43.8 L113.8 44.8 L113.7 44.2 L113.6 43.9 L113.9 44 L115.2 43.7 L115.1 44.8 L114.8 43.9 L115.6 43.5 L115.6 44.3 L115.9 44.6 L115.5 43.5 L116.4 43.6 L116.4 44.6 L116 44.5 L117.2 43.7 L117.4 43.5 L117.6 44.4 L117.1 44 L116.9 44.7 L117.2 44.3 L117.3 43.8 L117.7 44.5 L118 44.2 L118.8 44.6 L118.2 44.1 L118.6 44.5 L119.5 44 L120 44.4 L118.9 44.4 L119.6 44 L120.3 44.2 L119.9 43.7 L120.8 43.8 L121.1 43.7 L120.7 43.7 L120.6 44.6 L120.6 43.4 L121.7 43.8 L121.9 44.2 L121.6 44.2 L122 43.5 L122.1 43.7 L122 43.8 L122.2 43.5 L123 44.6 L123.3 43.6 L123.6 44.8 L123.1 44.3 L123.1 43.7 L124 44.8 L123.9 43.8 L123.8 44.7 L124.1 44.6 L124.5 44 L124.8 43.9 L125.5 44.9 L126.1 44.9 L125.3 44.2 L126.3 44.5 L126.1 43.7 L125.6 45 L126.5 44 L126.1 43.9 L126.7 44.2 L126.5 44.4 L127.7 44 L127.9 44.8 L127.5 43.9 L128.1 44.4 L128.4 44.4 L127.7 45.3 L129 45.2 L129 44.2 L129 44.8 L129.3 44.7 L129.8 44.9 L129.1 44.4 L129.3 44.6 L130.1 45.3 L130.2 45.3 L130 45.1 L130.3 44.6 L131 45 L130.6 44.4 L131.5 44.8 L131.4 44.6 L131.1 44.5 L131.7 45.1 L132.3 44.8 L131.8 45.5 L132.5 44.8 L133 45 L132.3 45.5 L133.4 44.9 L133.8 45.6 L133.4 45.3 L133.9 46.2 L133.5 46.3 L133.9 46.2 L134.8 45.4 L135 45.9 L135.3 46.3 L134.9 46.5 L134.8 46.6 L135.4 46.1 L134.9 46 L136.2 45.9 L135.3 45.5 L136.2 46.5 L136.5 47 L136.7 45.6 L136.6 46.5 L137.1 46.6 L137.8 47.2 L137.7 45.9 L138.1 46.5 L138.1 46.3 L137.5 46.3 L138.2 46.6 L138.5 46.7 L138.9 46.9 L138.3 46.5 L138.6 47.2 L138.7 47.7 L138.9 47.9 L139.4 46.6 L140 47.2 L140.2 47.5 L140.5 46.8 L139.7 47.3 L141.1 47.2 L140.7 47.4 L141.6 47.7 L140.6 48.4 L141.4 47.8 L141.5 47.9 L142.3 48.6 L141.9 48.3 L141.7 48.2 L143 47.6 L141.9 48.1 L142 48.4 L142.7 48 L143.7 48.3 L143.2 48.8 L142.8 48.7 L143.4 49.4 L143.2 49.2 L144.1 49.2 L144.6 49.5 L143.8 49.7 L145.2 48.8 L144.2 48.9 L144.6 50 L145.8 49.9 L145.7 49.4 L145.2 49.2 L145.8 50.4 L146.6 49.2 L146.2 49.6 L145.9 50.4 L147.1 49.7 L146.5 50.5 L147 50.1 L147.4 50.5 L147.5 49.9 L147.5 51.2 L147.3 50.6 L148.3 51.5 L147.3 50.4 L148.8 51.3 L148 50.8 L148.6 51.6 L149.4 50.6 L148.7 51.2 L149.5 51 L148.8 51.5 L148.8 52.4 L149.6 51.8 L150.2 52.5 L150.7 51.5 L149.6 51.9 L150.4 52.8 L150 52 L150.4 52.2 L150.9 53 L151.4 52 L150.6 52.4 L152 52.9 L151.4 53.7 L152.4 52.9 L151.9 53.5 L151.7 52.7 L152.8 53.2 L153 54 L152.1 53.9 L152.2 54.5 L152.7 53.6 L152.9 53.9 L152.7 54.3 L152.9 54 L153.5 54.4 L154 55.2 L153.5 55 L154.9 54.3 L153.7 54.5 L154.7 55.7 L154.7 55.1 L155.2 55 L154.8 55.3 L155.1 55 L155.8 55.4 L155.6 56.3 L155.4 55.8 L155.3 55.5 L155.9 55.6 L156 56.5 L156.8 55.9 L157.1 57 L157.5 56.8 L157.1 57.1 L157.3 57.2 L157.9 57 L156.8 57.4 L157.3 56.7 L158.3 56.9 L157.5 58.1 L157.7 58.2 L157.6 57.5 L158.3 57.4 L158.3 57.9 L158.6 57.5 L159.6 58.9 L158.9 58 L158.7 58.7 L159.6 58.1 L160.1 59.3 L159.3 59.4 L159.8 58.8 L160.1 59.8 L160.2 59.9 L160.6 60 L160.4 59.6 L160.3 60.3 L161.1 60.2 L161 60.5 L161.5 60.8 L161 60.7 L161.4 60.6 L162.2 60.2 L161.9 60.5 L162 61.3 L161.4 61.3 L161.9 60.7 L162.1 60.9 L162 61.8 L162.8 62.3 L162.2 62.5 L163 62.7 L162.4 61.8 L163.3 62.8 L162.8 62.3 L163.3 62.2 L163.2 62.6 L163.9 62.6 L164.2 62.6 L164.2 62.5 L164.2 64 L164.6 63 L164.2 63.3 L164.8 63.9 L164.1 63.8 L165.2 63.8 L164.4 64.1 L165.7 63.9 L165.3 64.2 L165.4 64.2 L165.5 64.6 L165.8 64.5 L165.5 65 L165.3 66.1 L166.2 66.1 L166.1 66.4 L166.2 65.8 L166.6 66.4 L166.8 66.4 L167.2 66.5 L166.9 67.1 L167.6 67.3 L167.5 66.7 L167.5 67.8 L166.9 66.6 L167.8 66.7 L167.9 67.4 L167.1 68.2 L168.6 68.2 L167.5 67.8 L167.6 68.1 L168.8 68.8 L168.6 68.1 L169 68.9 L169.2 68.6 L168.2 69.6 L169.3 68.7 L169.4 69.1 L169.8 69.4 L168.9 70.2 L168.9 70.4 L169.1 69.4 L169.5 70.7 L170.1 70.7 L170.3 70.7 L170.7 70.6 L170.2 71.6 L169.7 71.2 L170.6 71.3 L170.9 71.3 L170.1 72.2 L170.8 72.1 L170.7 72.3 L171.1 71.5 L170.9 72.9 L171.4 72.3 L171.6 72.1 L171.7 72.9 L171.9 72.9 L171 73 L171.8 73.5 L172.4 74 L171.4 73.4 L172.3 73.5 L171.6 74.6 L172.3 74 L171.7 74.3 L171.9 74.4 L172.3 74.3 L172.5 75.2 L173.2 75.5 L173.1 74.8 L172.2 76 L173.1 75.3 L173.7 76 L173.5 76.3 L173.9 75.8 L173.2 75.9 L172.9 77.3 L173.7 76.3 L173.4 77.6 L173.8 77.9 L173.3 77.3 L174.4 77 L173.6 77.9 L174.2 77.7 L173.6 77.6 L173.7 79 L174.3 78.8 L174.3 78.8 L174.7 78.6 L174.1 79 L175 79.4 L174.7 79.3 L175.1 79.5 L175.4 80.1 L174.5 80.1 L174.6 80.2 L175.5 80.1 L175.1 80.7 L175.6 81.4 L174.8 80.8 L175.9 80.8 L175.9 80.9 L175.2 81.9 L175.7 82 L175.5 81.7 L176.5 82.9 L175.8 83.1 L176.3 82.6 L175.8 83.6 L176.2 83.7 L176.8 82.8 L176 83.5 L176 83.1 L176 83.9 L176.9 84.6 L176.7 84.3 L176.9 84.4 L176.4 85.3 L176.6 85.2 L176.3 85.7 L176.6 85.4 L177.1 85.2 L177.5 85.3 L176.6 85.3 L177.4 86.1 L177.7 85.9 L178 86.7 L177.6 86.9 L177.7 87.1 L177 87.7 L177.8 87.1 L177 87.9 L177.8 88.2 L178.2 87.9 L177.9 88.4 L177.4 87.9 L178.3 88.6 L178 88 L178 88.4 L178.1 88.5 L178 89.1 L178.8 89.4 L178.5 89.5 L178.1 90.3 L178.9 90.7 L178.4 90 L179.1 91.2 L178.4 90.2 L178.9 91.2 L179.2 90.6 L179.2 91.3 L178.8 91.1 L179.4 91.5 L178.6 91.4 L179.4 91.7 L179.4 92 L179.6 92.3 L179.2 93.2 L178.8 92.5 L179.2 93.7 L179.3 93 L178.8 93.8" stroke="#1f3b2d" stroke-width="2.6"/><path d="M149.7 98.4 L150 86.1 L150 74.3" stroke="#4f7a3a" stroke-width="2"/><path d="M134.6 69.1 L132.2 69.1 L130.9 70 L129.6 71.8 L128.6 72.5 L128.4 74.5 L128.2 76.1 L129.7 78 L130.9 79.3 L133.2 80.7 L136.9 82.1 L139.5 83.7 L140.6 83.4 L143.9 83.9 L145.8 83 L147.5 82.7 L149.3 82.1 L150 82 L150.1 80.7 L149 78.3 L147 76.5 L143.1 74.5 L139.5 72.2 L136.5 70.6 Z" stroke="#4f7a3a" stroke-width="1.8"/><path d="M162.9 59.1 L165.4 58.6 L167.1 58.5 L168.2 60 L170.3 62.1 L170.4 63.8 L170.8 64.3 L169.5 66.1 L168.6 68.8 L165.2 70.7 L162.6 72.8 L161.5 75.4 L159.2 75.4 L157.2 75.9 L154.9 76.7 L152.4 76.8 L150.6 76.2 L149.8 75 L150.5 74.3 L151.4 71.4 L152.3 69.4 L155.3 66 L158.8 62.8 L161 59.8 Z" stroke="#4f7a3a" stroke-width="1.8"/></svg>
